#!OML:ASF H:\Male1\Project 1\Capture day 1\Session 1\Male1.ASF
:FULLY-SPECIFIED
:DEGREES
677
root 44.687 15.4911 -0.682826 -1135.66 87.8658 1027.27
lowerback 5.68326 1.46173 -0.089649
upperback 5.04243 2.11348 -1.54721
thorax 2.0655 1.14736 -1.61747
lowerneck -6.94127 5.0179 8.80459
upperneck 11.426 6.5495 -5.81851
head 5.05271 3.26879 -2.79834
rclavicle -6.85807e-015 1.82882e-014
rhumerus -37.6418 -7.28553 -87.4067
rradius 31.9931
rwrist -15.254
rhand -14.4655 -2.13572
rfingers 7.12502
rthumb 11.6802 -31.7901
lclavicle -6.85807e-015 1.82882e-014
lhumerus -29.9097 -10.2704 85.9362
lradius 29.5152
lwrist -0.665844
lhand -18.679 15.4656
lfingers 7.12502
lthumb 7.61504 45.3085
rfemur -11.5255 -1.97177 22.3257
rtibia 38.1015
rfoot -25.2808 -25.0412
rtoes -19.2268
lfemur -3.27 -18.6603 -21.5838
ltibia 23.2397
lfoot -20.9733 17.9518
ltoes -4.03798
678
root 44.6393 15.498 -0.705619 -1141.85 87.8894 1020.98
lowerback 5.93144 1.45935 -0.0856838
upperback 4.90292 2.10246 -1.57335
thorax 1.7839 1.13966 -1.6565
lowerneck -7.1638 4.95587 8.66462
upperneck 11.56 6.43658 -5.57544
head 5.11093 3.21903 -2.70279
rclavicle -7.45443e-015 2.3059e-014
rhumerus -37.5975 -7.45167 -87.3524
rradius 32.0961
rwrist -14.8715
rhand -14.0448 -1.75594
rfingers 7.12502
rthumb 12.0859 -31.3869
lclavicle -7.45443e-015 2.3059e-014
lhumerus -29.6088 -10.4613 85.8509
lradius 29.8823
lwrist -0.303483
lhand -18.7977 15.6556
lfingers 7.12502
lthumb 7.50038 45.5026
rfemur -11.803 -1.06605 22.6182
rtibia 38.5228
rfoot -25.077 -24.7369
rtoes -20.0649
lfemur -3.93718 -18.6021 -21.4018
ltibia 23.6349
lfoot -20.501 17.8669
ltoes -4.10902
679
root 44.6242 15.5006 -0.726179 -1150.86 88.1282 1012.13
lowerback 5.90744 1.37129 -0.37776
upperback 4.95797 1.97714 -1.54406
thorax 1.83973 1.06997 -1.45604
lowerneck -7.45697 4.96193 8.40776
upperneck 11.7861 6.42542 -5.30533
head 5.21259 3.2156 -2.56994
rclavicle 1.10325e-014 7.95139e-015
rhumerus -37.5344 -7.0473 -87.4209
rradius 32.2538
rwrist -15.1875
rhand -14.0628 -1.85171
rfingers 7.12502
rthumb 12.0686 -31.4837
lclavicle 1.10325e-014 7.95139e-015
lhumerus -29.3373 -10.4951 85.8805
lradius 30.2789
lwrist 0.166434
lhand -19.0774 15.8309
lfingers 7.12502
lthumb 7.23044 45.6873
rfemur -11.4868 -0.628546 22.578
rtibia 38.7839
rfoot -24.4905 -24.7155
rtoes -23.9887
lfemur -4.16829 -18.5644 -21.6091
ltibia 24.129
lfoot -20.1783 17.6753
ltoes -4.44847
680
root 44.6011 15.5004 -0.743445 -1157.24 88.1892 1005.93
lowerback 5.97946 1.40272 -0.44116
upperback 5.00194 2.01979 -1.55441
thorax 1.84467 1.09144 -1.43435
lowerneck -7.51857 4.90829 8.42743
upperneck 11.7897 6.3332 -5.21942
head 5.21568 3.17561 -2.55208
rclavicle 3.46879e-014 1.59028e-015
rhumerus -37.4991 -6.91236 -87.4593
rradius 32.4927
rwrist -15.4092
rhand -14.022 -2.25161
rfingers 7.12502
rthumb 12.1079 -31.8813
lclavicle 3.46879e-014 1.59028e-015
lhumerus -29.026 -10.9411 85.9724
lradius 30.6866
lwrist 0.801436
lhand -19.4509 15.8862
lfingers 7.12502
lthumb 6.86991 45.7547
rfemur -11.1462 -0.0353616 22.6999
rtibia 39.0825
rfoot -24.225 -24.6878
rtoes -27.1478
lfemur -4.1787 -18.4578 -21.6777
ltibia 24.183
lfoot -19.6845 17.5543
ltoes -5.1563
681
root 44.5661 15.4946 -0.75811 -1158.63 87.8568 1004.9
lowerback 6.50317 1.53405 -0.0306189
upperback 4.96185 2.20813 -1.54879
thorax 1.53237 1.19729 -1.68427
lowerneck -7.78307 4.8634 8.29833
upperneck 12.1092 6.21891 -4.75687
head 5.33364 3.1424 -2.38765
rclavicle 8.44835e-015 -7.95139e-016
rhumerus -37.6654 -6.94903 -87.4996
rradius 32.8778
rwrist -15.6264
rhand -14.0045 -2.264
rfingers 7.12502
rthumb 12.1248 -31.8927
lclavicle 8.44835e-015 -7.95139e-016
lhumerus -28.8738 -11.5536 86.056
lradius 31.1823
lwrist 1.34806
lhand -19.8652 15.8291
lfingers 7.12502
lthumb 6.46995 45.7102
rfemur -10.5885 0.83442 23.2621
rtibia 39.3433
rfoot -24.1738 -24.508
rtoes -27.2149
lfemur -4.04288 -18.2181 -21.388
ltibia 24.2561
lfoot -19.3189 17.401
ltoes -5.54287
682
root 44.5787 15.4861 -0.779423 -1167.16 88.2963 996.668
lowerback 6.1106 1.46352 -0.416417
upperback 5.11922 2.11171 -1.63489
thorax 1.89994 1.14394 -1.53682
lowerneck -7.97097 4.90832 8.21595
upperneck 12.3382 6.24727 -4.48359
head 5.42786 3.16984 -2.28065
rclavicle -2.95195e-014 2.22639e-014
rhumerus -37.7676 -6.47429 -87.5456
rradius 33.3048
rwrist -15.9959
rhand -14.166 -2.10625
rfingers 7.12502
rthumb 11.969 -31.7441
lclavicle -2.95195e-014 2.22639e-014
lhumerus -28.7511 -11.5956 86.1462
lradius 31.7536
lwrist 1.67711
lhand -20.3016 15.6377
lfingers 7.12502
lthumb 6.04864 45.5314
rfemur -9.74401 0.664349 22.7799
rtibia 39.6019
rfoot -24.1008 -23.7697
rtoes -27.7275
lfemur -3.67386 -18.0811 -22.0395
ltibia 24.2381
lfoot -19.1416 17.0243
ltoes -5.54732
683
root 44.5233 15.486 -0.799505 -1157.69 88.5022 1005.85
lowerback 6.16135 1.6131 -0.589387
upperback 4.87346 2.29032 -1.75423
thorax 1.62002 1.22588 -1.57695
lowerneck -8.08008 4.90383 8.13788
upperneck 12.4928 6.20726 -4.17948
head 5.48041 3.1672 -2.17238
rclavicle -4.07509e-015 4.77083e-015
rhumerus -37.8344 -6.23854 -87.5469
rradius 33.6449
rwrist -16.17
rhand -14.4032 -1.98479
rfingers 7.12502
rthumb 11.7403 -31.6358
lclavicle -4.07509e-015 4.77083e-015
lhumerus -28.7213 -11.7511 86.2502
lradius 32.5242
lwrist 1.96958
lhand -20.3986 15.7912
lfingers 7.12502
lthumb 5.95502 45.6875
rfemur -9.96812 1.3621 22.6486
rtibia 39.863
rfoot -23.6945 -23.5892
rtoes -28.6111
lfemur -4.37223 -17.8238 -22.1363
ltibia 24.3918
lfoot -18.9951 16.8336
ltoes -4.50516
684
root 44.5242 15.4801 -0.814707 -1167.53 89.0602 996.062
lowerback 5.63194 1.61928 -1.01072
upperback 4.94619 2.29846 -1.90452
thorax 1.98006 1.22215 -1.47677
lowerneck -8.11167 4.80911 8.109
upperneck 12.5591 6.05442 -3.9727
head 5.48987 3.10593 -2.11419
rclavicle -3.35946e-014 3.02153e-014
rhumerus -37.846 -6.14036 -87.4588
rradius 33.9513
rwrist -16.2373
rhand -14.6066 -1.91678
rfingers 7.12502
rthumb 11.5442 -31.5789
lclavicle -3.35946e-014 3.02153e-014
lhumerus -28.7888 -11.9397 86.4772
lradius 33.304
lwrist 2.70501
lhand -20.5353 15.92
lfingers 7.12502
lthumb 5.82305 45.82
rfemur -9.37018 0.995447 22.0307
rtibia 40.0917
rfoot -23.9529 -22.9091
rtoes -28.7367
lfemur -4.3592 -17.5583 -22.7699
ltibia 24.4157
lfoot -18.7679 16.3418
ltoes -4.44435
685
root 44.4747 15.4803 -0.8267 -1154.35 88.6564 1009.04
lowerback 5.6786 1.85768 -0.381126
upperback 4.72366 2.62517 -1.96668
thorax 1.76061 1.39913 -1.91137
lowerneck -8.26111 4.7067 8.11815
upperneck 12.7461 5.85443 -3.57939
head 5.55078 3.0366 -2.00378
rclavicle -1.03368e-014 1.59028e-014
rhumerus -37.8836 -6.41298 -87.3967
rradius 34.1919
rwrist -16.3363
rhand -14.6786 -1.96293
rfingers 7.12502
rthumb 11.4747 -31.6289
lclavicle -1.03368e-014 1.59028e-014
lhumerus -28.9523 -12.4786 86.7032
lradius 34.0215
lwrist 4.04794
lhand -20.8936 15.778
lfingers 7.12502
lthumb 5.47711 45.6872
rfemur -9.34871 1.55958 22.5828
rtibia 40.25
rfoot -24.0105 -22.8138
rtoes -28.2607
lfemur -4.93624 -17.2823 -22.2366
ltibia 24.572
lfoot -18.4983 16.3591
ltoes -4.46711
686
root 44.4613 15.4769 -0.834976 -1156.04 88.8137 1007.48
lowerback 5.38317 1.86773 -0.535805
upperback 4.7685 2.63872 -1.94985
thorax 1.96389 1.40181 -1.79552
lowerneck -8.33942 4.67564 7.96897
upperneck 12.8972 5.78979 -3.27826
head 5.59457 3.02031 -1.88777
rclavicle 1.14301e-014 7.95139e-016
rhumerus -37.7148 -6.07433 -87.2859
rradius 34.1549
rwrist -16.5496
rhand -14.6779 -1.97313
rfingers 7.12502
rthumb 11.4754 -31.639
lclavicle 1.14301e-014 7.95139e-016
lhumerus -29.2194 -12.1781 86.935
lradius 34.8708
lwrist 4.90652
lhand -20.9608 15.9323
lfingers 7.12502
lthumb 5.4122 45.8432
rfemur -8.66984 1.32196 22.4435
rtibia 40.3196
rfoot -24.1008 -22.5589
rtoes -28.571
lfemur -4.88625 -17.1541 -22.4481
ltibia 24.5881
lfoot -18.2504 16.2604
ltoes -4.92992
687
root 44.4399 15.4719 -0.840619 -1153.73 88.9445 1009.95
lowerback 5.2061 1.89219 -0.667885
upperback 4.78582 2.67001 -1.93644
thorax 2.07461 1.41346 -1.70163
lowerneck -8.35111 4.67568 7.99823
upperneck 13.0457 5.7689 -3.11977
head 5.63859 3.02536 -1.84288
rclavicle 1.19271e-014 -3.33958e-014
rhumerus -37.5155 -5.83775 -87.1547
rradius 34.114
rwrist -16.6366
rhand -14.7572 -1.94457
rfingers 7.12502
rthumb 11.3989 -31.6147
lclavicle 1.19271e-014 -3.33958e-014
lhumerus -29.5758 -11.7738 87.1212
lradius 35.7678
lwrist 5.32895
lhand -20.7422 16.4138
lfingers 7.12502
lthumb 5.62324 46.3192
rfemur -7.97764 1.18159 22.3166
rtibia 40.2989
rfoot -24.2885 -22.3063
rtoes -29.0088
lfemur -4.9205 -17.0684 -22.6346
ltibia 24.7855
lfoot -18.199 16.1595
ltoes -5.18056
688
root 44.4171 15.4624 -0.843576 -1144.78 89.2619 1019.3
lowerback 5.27356 1.93752 -0.867153
upperback 4.86339 2.73233 -2.04137
thorax 2.11568 1.44407 -1.70122
lowerneck -8.38948 4.64005 7.97869
upperneck 13.1695 5.704 -2.97176
head 5.6757 3.00532 -1.79674
rclavicle -2.67365e-014 2.70347e-014
rhumerus -37.3924 -5.86386 -87.0283
rradius 34.2634
rwrist -16.5038
rhand -14.8726 -2.19552
rfingers 7.12502
rthumb 11.2876 -31.8718
lclavicle -2.67365e-014 2.70347e-014
lhumerus -29.9572 -11.6353 87.2965
lradius 36.5262
lwrist 5.80137
lhand -20.4742 16.8395
lfingers 7.12502
lthumb 5.88205 46.7378
rfemur -6.96683 1.10413 21.968
rtibia 40.23
rfoot -24.5784 -21.9788
rtoes -29.5158
lfemur -4.56845 -17.0483 -23.1374
ltibia 24.8317
lfoot -18.1258 16.1331
ltoes -5.19401
689
root 44.3638 15.4661 -0.839675 -1145.89 88.8543 1018
lowerback 5.18137 1.99891 -0.452894
upperback 4.69637 2.81283 -1.9091
thorax 2.00812 1.48808 -1.79914
lowerneck -8.50716 4.54798 7.91424
upperneck 13.3374 5.57073 -2.88587
head 5.73662 2.94526 -1.76672
rclavicle -2.51463e-014 7.95139e-015
rhumerus -37.2214 -5.68612 -86.9153
rradius 34.4092
rwrist -16.4686
rhand -15.0399 -2.52364
rfingers 7.12502
rthumb 11.1263 -32.2087
lclavicle -2.51463e-014 7.95139e-015
lhumerus -30.3057 -11.4733 87.5511
lradius 37.1678
lwrist 6.31327
lhand -20.3715 17.0128
lfingers 7.12502
lthumb 5.98114 46.9084
rfemur -6.76101 1.62873 22.5729
rtibia 40.0656
rfoot -24.4649 -21.9747
rtoes -29.6824
lfemur -5.05906 -17.0688 -22.5292
ltibia 24.8501
lfoot -17.9393 16.1724
ltoes -4.64851
